P3
7 7
255
255 255 255 252 230 36 252 230 36 252 230 36 255 255 255 255 255 255 255 255 255 
255 255 255 252 230 36 255 255 255 255 255 255 68 1 84 255 255 255 255 255 255 
255 255 255 255 255 255 252 230 36 255 255 255 255 255 255 68 1 84 255 255 255 
255 255 255 255 255 255 255 255 255 252 230 36 255 255 255 255 255 255 68 1 84 
68 1 84 255 255 255 255 255 255 255 255 255 252 230 36 255 255 255 255 255 255 
68 1 84 255 255 255 255 255 255 255 255 255 255 255 255 252 230 36 255 255 255 
68 1 84 255 255 255 255 255 255 255 255 255 255 255 255 255 255 255 252 230 36 
