P3
24 24
255
68 1 84 255 255 255 255 255 255 255 255 255 255 255 255 252 230 36 252 230 36 255 255 255 255 255 255 255 255 255 255 255 255 255 255 255 252 230 36 252 230 36 255 255 255 255 255 255 255 255 255 252 230 36 252 230 36 252 230 36 255 255 255 252 230 36 255 255 255 255 255 255 
255 255 255 252 230 36 255 255 255 255 255 255 255 255 255 255 255 255 255 255 255 255 255 255 252 230 36 252 230 36 255 255 255 255 255 255 255 255 255 252 230 36 252 230 36 255 255 255 255 255 255 252 230 36 255 255 255 255 255 255 255 255 255 255 255 255 255 255 255 255 255 255 
255 255 255 255 255 255 252 230 36 255 255 255 255 255 255 255 255 255 252 230 36 255 255 255 255 255 255 255 255 255 255 255 255 252 230 36 255 255 255 255 255 255 255 255 255 255 255 255 255 255 255 255 255 255 255 255 255 255 255 255 252 230 36 252 230 36 252 230 36 255 255 255 
255 255 255 255 255 255 255 255 255 252 230 36 255 255 255 255 255 255 255 255 255 252 230 36 255 255 255 255 255 255 252 230 36 255 255 255 255 255 255 255 255 255 255 255 255 252 230 36 255 255 255 255 255 255 252 230 36 252 230 36 255 255 255 255 255 255 255 255 255 255 255 255 
255 255 255 255 255 255 255 255 255 255 255 255 252 230 36 255 255 255 255 255 255 252 230 36 255 255 255 252 230 36 255 255 255 255 255 255 255 255 255 255 255 255 252 230 36 252 230 36 252 230 36 255 255 255 255 255 255 255 255 255 255 255 255 255 255 255 255 255 255 255 255 255 
252 230 36 255 255 255 255 255 255 255 255 255 255 255 255 252 230 36 252 230 36 255 255 255 255 255 255 255 255 255 255 255 255 255 255 255 252 230 36 252 230 36 255 255 255 255 255 255 255 255 255 252 230 36 255 255 255 255 255 255 255 255 255 255 255 255 255 255 255 255 255 255 
252 230 36 255 255 255 252 230 36 255 255 255 255 255 255 252 230 36 252 230 36 255 255 255 255 255 255 255 255 255 255 255 255 252 230 36 252 230 36 255 255 255 255 255 255 255 255 255 255 255 255 255 255 255 255 255 255 252 230 36 255 255 255 252 230 36 255 255 255 252 230 36 
255 255 255 255 255 255 255 255 255 252 230 36 252 230 36 255 255 255 255 255 255 252 230 36 255 255 255 252 230 36 255 255 255 255 255 255 255 255 255 255 255 255 252 230 36 252 230 36 252 230 36 252 230 36 252 230 36 255 255 255 255 255 255 255 255 255 255 255 255 255 255 255 
255 255 255 252 230 36 255 255 255 255 255 255 255 255 255 255 255 255 255 255 255 255 255 255 252 230 36 252 230 36 255 255 255 255 255 255 255 255 255 255 255 255 252 230 36 255 255 255 255 255 255 255 255 255 255 255 255 255 255 255 255 255 255 255 255 255 255 255 255 255 255 255 
255 255 255 252 230 36 255 255 255 255 255 255 252 230 36 255 255 255 255 255 255 252 230 36 252 230 36 252 230 36 255 255 255 255 255 255 255 255 255 252 230 36 252 230 36 255 255 255 255 255 255 252 230 36 252 230 36 255 255 255 255 255 255 255 255 255 255 255 255 255 255 255 
255 255 255 255 255 255 255 255 255 252 230 36 255 255 255 255 255 255 255 255 255 255 255 255 255 255 255 255 255 255 252 230 36 255 255 255 255 255 255 255 255 255 255 255 255 255 255 255 255 255 255 255 255 255 252 230 36 252 230 36 252 230 36 252 230 36 255 255 255 255 255 255 
255 255 255 255 255 255 252 230 36 255 255 255 255 255 255 255 255 255 252 230 36 255 255 255 255 255 255 255 255 255 255 255 255 252 230 36 252 230 36 255 255 255 255 255 255 255 255 255 255 255 255 255 255 255 255 255 255 255 255 255 255 255 255 252 230 36 255 255 255 252 230 36 
252 230 36 255 255 255 255 255 255 255 255 255 255 255 255 252 230 36 252 230 36 255 255 255 255 255 255 255 255 255 255 255 255 252 230 36 252 230 36 255 255 255 255 255 255 255 255 255 255 255 255 255 255 255 255 255 255 255 255 255 255 255 255 255 255 255 255 255 255 252 230 36 
252 230 36 252 230 36 255 255 255 255 255 255 255 255 255 252 230 36 255 255 255 255 255 255 255 255 255 252 230 36 255 255 255 255 255 255 255 255 255 252 230 36 255 255 255 255 255 255 255 255 255 252 230 36 255 255 255 255 255 255 255 255 255 255 255 255 255 255 255 255 255 255 
255 255 255 252 230 36 255 255 255 255 255 255 252 230 36 255 255 255 255 255 255 252 230 36 252 230 36 252 230 36 255 255 255 255 255 255 255 255 255 255 255 255 252 230 36 255 255 255 255 255 255 255 255 255 255 255 255 255 255 255 255 255 255 255 255 255 255 255 255 255 255 255 
255 255 255 255 255 255 255 255 255 252 230 36 252 230 36 255 255 255 255 255 255 252 230 36 255 255 255 255 255 255 255 255 255 255 255 255 255 255 255 255 255 255 255 255 255 252 230 36 252 230 36 255 255 255 252 230 36 255 255 255 255 255 255 255 255 255 255 255 255 255 255 255 
255 255 255 255 255 255 255 255 255 255 255 255 252 230 36 255 255 255 255 255 255 252 230 36 255 255 255 255 255 255 255 255 255 255 255 255 255 255 255 255 255 255 255 255 255 252 230 36 252 230 36 255 255 255 255 255 255 255 255 255 255 255 255 255 255 255 255 255 255 255 255 255 
252 230 36 252 230 36 255 255 255 255 255 255 255 255 255 252 230 36 255 255 255 252 230 36 255 255 255 252 230 36 255 255 255 255 255 255 255 255 255 252 230 36 255 255 255 255 255 255 255 255 255 252 230 36 252 230 36 252 230 36 255 255 255 255 255 255 255 255 255 255 255 255 
252 230 36 255 255 255 255 255 255 252 230 36 255 255 255 255 255 255 255 255 255 252 230 36 255 255 255 252 230 36 252 230 36 255 255 255 255 255 255 255 255 255 255 255 255 252 230 36 255 255 255 252 230 36 252 230 36 252 230 36 255 255 255 255 255 255 255 255 255 255 255 255 
252 230 36 255 255 255 255 255 255 252 230 36 255 255 255 255 255 255 252 230 36 255 255 255 255 255 255 255 255 255 252 230 36 255 255 255 255 255 255 255 255 255 255 255 255 255 255 255 255 255 255 252 230 36 252 230 36 252 230 36 252 230 36 252 230 36 255 255 255 255 255 255 
255 255 255 255 255 255 252 230 36 255 255 255 255 255 255 255 255 255 255 255 255 255 255 255 255 255 255 255 255 255 252 230 36 255 255 255 255 255 255 255 255 255 255 255 255 255 255 255 255 255 255 255 255 255 255 255 255 252 230 36 252 230 36 252 230 36 252 230 36 255 255 255 
252 230 36 255 255 255 252 230 36 255 255 255 255 255 255 255 255 255 252 230 36 255 255 255 255 255 255 255 255 255 252 230 36 252 230 36 255 255 255 255 255 255 255 255 255 255 255 255 255 255 255 255 255 255 255 255 255 252 230 36 252 230 36 252 230 36 252 230 36 255 255 255 
255 255 255 255 255 255 252 230 36 255 255 255 255 255 255 255 255 255 255 255 255 255 255 255 255 255 255 255 255 255 255 255 255 255 255 255 255 255 255 255 255 255 255 255 255 255 255 255 255 255 255 255 255 255 255 255 255 255 255 255 252 230 36 252 230 36 252 230 36 255 255 255 
255 255 255 255 255 255 255 255 255 255 255 255 255 255 255 255 255 255 252 230 36 255 255 255 255 255 255 255 255 255 255 255 255 252 230 36 252 230 36 255 255 255 255 255 255 255 255 255 255 255 255 255 255 255 255 255 255 255 255 255 255 255 255 255 255 255 255 255 255 252 230 36 
